<svg width="78" height="27" viewBox="0 0 78 27" fill="none" xmlns="http://www.w3.org/2000/svg">
<g id="Group 1189">
<path id="Vector" fill-rule="evenodd" clip-rule="evenodd" d="M4.47813 2.42712L2.48484 3.58728C0.946383 4.48271 0 6.12855 0 7.90862V10.27V14.8409C0 15.2488 0.230429 15.6216 0.595213 15.804C4.04326 17.5276 8.22119 19.9381 8.87511 20.5809C9.78886 21.4795 10.2529 22.8071 10.0629 23.9803C9.90065 24.9828 9.26184 25.6128 8.58117 25.4414C7.56555 25.1858 7.23665 23.2891 7.91387 21.5916C8.26802 20.7041 8.26565 20.6813 7.78201 20.2887C7.51138 20.0689 7.21162 19.889 7.1158 19.889C7.01997 19.889 6.7638 20.3517 6.54627 20.917C6.05788 22.1862 6.02076 24.5056 6.4744 25.3884C7.17255 26.7467 8.75403 27.286 10.0301 26.601C11.5989 25.7591 12.04 22.9703 10.9432 20.8285C10.1762 19.3302 9.13624 18.5335 5.17952 16.4134C3.33971 15.4274 1.7796 14.5392 1.71248 14.4394C1.64536 14.3394 1.57047 12.3838 1.54566 10.0936L1.5324 8.86364C1.51287 7.05203 2.47484 5.37159 4.04692 4.4711L5.22851 3.79429L7.99727 2.2085C8.59336 1.86709 9.32376 1.85883 9.92741 2.18667C10.4615 2.4769 12.1367 3.42961 13.6502 4.30375L13.9025 4.44946C15.4491 5.34273 16.4018 6.99315 16.4018 8.7792V10.1864V11.3909C16.4018 13.2843 15.3324 15.0152 13.6391 15.8624L12.8549 16.2548L10.1379 17.6141C9.73341 17.8164 9.6514 18.3584 9.97791 18.6714C10.3787 19.0555 10.9794 19.1423 11.4726 18.8875L14.3844 17.383L15.4161 16.8499C17.0774 15.9914 18.1208 14.2778 18.1208 12.4079V10.2581V6.61871C18.1208 5.65625 17.6083 4.76658 16.7758 4.28362C14.2135 2.79767 12.1652 1.68081 10.8087 0.960673C9.6292 0.334457 8.26879 0.301246 7.09701 0.941876C6.45364 1.29362 5.60099 1.77362 4.47813 2.42712ZM6.65158 5.58824C3.63581 7.37375 3.88464 6.96341 3.88464 10.1498C3.88464 12.1011 3.96363 12.9725 4.15441 13.1218C4.30289 13.2382 5.10398 13.7029 5.93487 14.1548C6.76575 14.6065 7.79604 15.1975 8.22421 15.4681C8.70312 15.7706 9.31018 15.7832 9.80116 15.5006L11.5126 14.5158C13.0653 13.6222 14.0232 11.9678 14.025 10.1762L14.0251 10.1278L14.0252 10.0262C14.0268 8.2658 13.0951 6.63649 11.5771 5.74515C11.4744 5.68484 11.3721 5.62613 11.2707 5.56912C9.83012 4.75858 8.07397 4.74615 6.65158 5.58824ZM7.2837 7.06643C6.24893 7.662 5.61115 8.76497 5.61115 9.95889V10.1314V11.4406C5.61115 11.9287 5.88106 12.3768 6.31254 12.605C6.69841 12.8091 7.47146 13.2367 8.03063 13.5555L8.12638 13.6101C8.69798 13.9358 9.39818 13.9392 9.97295 13.6192C10.4821 13.3356 11.2663 12.874 11.7156 12.5931C12.2216 12.2769 12.5217 11.7159 12.5038 11.1195L12.471 10.0243L12.4681 9.92688C12.4317 8.71336 11.7513 7.6112 10.6828 7.03483L10.6548 7.01976C9.59889 6.45032 8.32346 6.46798 7.2837 7.06643Z" fill="#FF7000"/>
<g id="HYVE">
<path d="M35.3229 6.98325C36.3479 6.98325 37.1787 7.81411 37.1787 8.83903V18.3957C37.1787 19.4206 36.3479 20.2514 35.3229 20.2514C34.298 20.2514 33.4672 19.4206 33.4672 18.3957V15.0768H28.4059V18.3957C28.4059 19.4206 27.5751 20.2514 26.5502 20.2514C25.5252 20.2514 24.6944 19.4206 24.6944 18.3957V8.83903C24.6944 7.81411 25.5252 6.98325 26.5502 6.98325C27.5751 6.98325 28.4059 7.81411 28.4059 8.83903V11.9683H33.4672V8.83903C33.4672 7.81411 34.298 6.98325 35.3229 6.98325Z" fill="#575656"/>
<path d="M47.2012 15.4938V18.3957C47.2012 19.4206 46.3703 20.2514 45.3454 20.2514C44.3205 20.2514 43.4896 19.4206 43.4896 18.3957V15.437L39.9905 9.52679C39.3255 8.40351 40.1351 6.98325 41.4405 6.98325C42.0366 6.98325 42.5883 7.29819 42.8915 7.81148L45.5141 12.2526L48.176 7.74498C48.4547 7.2729 48.9622 6.98325 49.5104 6.98325C50.7101 6.98325 51.4549 8.28771 50.845 9.32082L47.2012 15.4938Z" fill="#575656"/>
<path d="M63.7704 6.98325C64.9807 6.98325 65.7986 8.21828 65.3263 9.33262L61.2154 19.0319C60.902 19.7712 60.1769 20.2514 59.3739 20.2514H58.3694C57.5656 20.2514 56.8399 19.7702 56.5271 19.0297L52.5194 9.54238C52.0063 8.32783 52.8979 6.98325 54.2164 6.98325C54.9628 6.98325 55.6354 7.43356 55.9197 8.12362L59.0114 15.6265L62.2127 8.01779C62.4765 7.39093 63.0903 6.98325 63.7704 6.98325Z" fill="#575656"/>
<path d="M76.5499 17.3514C77.3507 17.3514 77.9999 18.0006 77.9999 18.8014C77.9999 19.6022 77.3507 20.2514 76.5499 20.2514H69.4651C68.3605 20.2514 67.4651 19.356 67.4651 18.2514V8.98325C67.4651 7.87868 68.3605 6.98325 69.4651 6.98325H76.3062C77.1071 6.98325 77.7563 7.63244 77.7563 8.43327C77.7563 9.2341 77.1071 9.8833 76.3062 9.8833H71.1392V12.1199H75.5663C76.341 12.1199 76.969 12.7479 76.969 13.5226C76.969 14.2972 76.341 14.9252 75.5663 14.9252H71.1392V17.3514H76.5499Z" fill="#575656"/>
</g>
</g>
</svg>
