<svg width="18" height="18" viewBox="0 0 18 18" fill="none" xmlns="http://www.w3.org/2000/svg">
<g id="wallet">
<g id="vuesax/linear/wallet">
<g id="wallet_2">
<path id="Vector" d="M9.495 1.8886L9.4725 1.9411L7.2975 6.9886H5.16C4.65 6.9886 4.1625 7.0936 3.72 7.2811L5.0325 4.1461L5.0625 4.0711L5.115 3.9511C5.13 3.9061 5.145 3.8611 5.1675 3.8236C6.15 1.5511 7.26 1.0336 9.495 1.8886Z" stroke="#FF882A" stroke-width="1.5" stroke-linecap="round" stroke-linejoin="round"/>
<path id="Vector_2" d="M13.5375 7.1386C13.2 7.0336 12.84 6.9886 12.48 6.9886H7.29749L9.47249 1.9411L9.49498 1.8886C9.60748 1.9261 9.71249 1.9786 9.82499 2.0236L11.4825 2.7211C12.405 3.1036 13.05 3.5011 13.44 3.9811C13.515 4.0711 13.575 4.1536 13.6275 4.2511C13.695 4.3561 13.7475 4.4611 13.7775 4.5736C13.8075 4.6411 13.83 4.7086 13.845 4.7686C14.0475 5.3986 13.9275 6.1711 13.5375 7.1386Z" stroke="#FF882A" stroke-width="1.5" stroke-linecap="round" stroke-linejoin="round"/>
<path id="Vector_3" d="M16.1413 10.6488V12.1113C16.1413 12.2613 16.1338 12.4113 16.1263 12.5613C15.9838 15.1788 14.5213 16.4988 11.7463 16.4988H5.89629C5.71629 16.4988 5.53629 16.4838 5.36379 16.4613C2.97879 16.3038 1.70379 15.0288 1.54629 12.6438C1.52379 12.4713 1.50879 12.2913 1.50879 12.1113V10.6488C1.50879 9.14127 2.42379 7.84377 3.72879 7.28127C4.17879 7.09377 4.65879 6.98877 5.16879 6.98877H12.4888C12.8563 6.98877 13.2163 7.04127 13.5463 7.13877C15.0388 7.59627 16.1413 8.99127 16.1413 10.6488Z" stroke="#FF882A" stroke-width="1.5" stroke-linecap="round" stroke-linejoin="round"/>
<path id="Vector_4" d="M5.0325 4.1461L3.72 7.2811C2.415 7.8436 1.5 9.1411 1.5 10.6486V8.4511C1.5 6.3211 3.015 4.5436 5.0325 4.1461Z" stroke="#FF882A" stroke-width="1.5" stroke-linecap="round" stroke-linejoin="round"/>
<path id="Vector_5" d="M16.1389 8.45074V10.6482C16.1389 8.99824 15.0439 7.59574 13.5439 7.14574C13.9339 6.17074 14.0464 5.40574 13.8589 4.76824C13.8439 4.70074 13.8214 4.63324 13.7914 4.57324C15.1864 5.29324 16.1389 6.77074 16.1389 8.45074Z" stroke="#FF882A" stroke-width="1.5" stroke-linecap="round" stroke-linejoin="round"/>
</g>
</g>
</g>
</svg>
